<?xml version="1.0" encoding="UTF-8"?>
<!DOCTYPE svg PUBLIC "-//W3C//DTD SVG 1.1//EN" "http://www.w3.org/Graphics/SVG/1.1/DTD/svg11.dtd">
<!-- Creator: CorelDRAW 2019 -->
<svg xmlns="http://www.w3.org/2000/svg" xml:space="preserve" width="200px" height="100px" version="1.1" style="shape-rendering:geometricPrecision; text-rendering:geometricPrecision; image-rendering:optimizeQuality; fill-rule:evenodd; clip-rule:evenodd"
viewBox="0 0 200 100"
 xmlns:xlink="http://www.w3.org/1999/xlink"
 xmlns:xodm="http://www.corel.com/coreldraw/odm/2003">
 <defs>
  <style type="text/css">
   <![CDATA[
    .fil2 {fill:none}
    .fil0 {fill:white}
    .fil1 {fill:white;fill-rule:nonzero}
   ]]>
  </style>
 </defs>
 <g id="Layer_x0020_1">
  <metadata id="CorelCorpID_0Corel-Layer"/>
  <polygon class="fil0" points="0,100 62.09,66.35 129.77,38.7 200,0 0,0 "/>
  <g id="_526233720">
   <path class="fil1" d="M166.09 13.64c0.07,0.03 0.69,0.35 0.69,0.35 2.32,1.14 4.18,2.71 6.03,4.51 2.16,2.14 3.8,4.17 5.36,6.79 1.28,2.27 2.19,4.34 2.45,6.94 0.18,4.2 -0.19,8.83 0.87,12.85 0.6,2.04 1.32,3.31 2.77,4.88 0.64,0.92 4.27,2.72 5.36,3.19 -2.49,-0.72 -3.97,-1.37 -6.18,-2.7 -1.77,-1.59 -2.73,-2.98 -3.58,-5.2 -1.55,-4.25 -1.43,-8.54 -1.74,-13.02 -0.35,-2.14 -1.11,-3.91 -2.08,-5.85 -1.33,-2.5 -2.73,-4.59 -4.45,-6.84 -1.56,-1.95 -3.11,-3.69 -4.96,-5.36 -0.46,-0.47 -1.23,-0.95 -1.77,-1.35 -0.51,-0.29 -0.39,-0.14 0.26,-0.17 -0.48,0.02 -0.81,-0.14 -0.26,0.17 0.64,0.4 1.21,0.85 1.79,1.32 1.88,1.63 3.51,3.34 5.11,5.24 1.82,2.19 3.35,4.27 4.8,6.73 1.13,2 2.02,3.85 2.49,6.11 0.42,4.33 0.44,8.8 2.07,12.89 0.85,2.02 1.76,3.25 3.44,4.67 0.87,0.92 5.73,2.43 7.06,2.78 -3.13,-0.16 -5.42,-0.58 -8.15,-2.14 -1.81,-1.53 -2.73,-2.94 -3.43,-5.2 -1.19,-4.31 -0.33,-8.58 -0.06,-13 0.17,-2.59 -0.45,-4.75 -1.45,-7.12 -1.29,-2.87 -2.75,-5.02 -4.98,-7.25 -1.94,-1.86 -3.98,-3.41 -6.64,-4.04 -0.14,-0.07 -0.62,-0.18 -0.79,-0.21 -0.01,0.01 -0.02,0.02 -0.03,0.03z"/>
  </g>
  <path class="fil2" d="M164.9 8.92c3.39,-0.19 17.39,13.29 17.39,23.31 0,10.59 -3.33,15.63 6.45,23.8"/>
  <g id="_948891832">
   <path class="fil1" d="M142.83 26.71c0.08,0.04 0.69,0.35 0.7,0.35 2.32,1.14 4.18,2.71 6.03,4.51 2.16,2.14 3.8,4.18 5.36,6.79 1.28,2.27 2.18,4.34 2.45,6.95 0.18,4.19 -0.19,8.82 0.87,12.84 0.6,2.04 1.32,3.32 2.77,4.88 0.64,0.92 4.26,2.73 5.36,3.19 -2.5,-0.72 -3.97,-1.37 -6.18,-2.7 -1.77,-1.58 -2.73,-2.98 -3.58,-5.2 -1.55,-4.25 -1.43,-8.54 -1.74,-13.01 -0.35,-2.15 -1.11,-3.92 -2.08,-5.85 -1.33,-2.51 -2.73,-4.6 -4.46,-6.85 -1.55,-1.95 -3.1,-3.68 -4.95,-5.36 -0.46,-0.47 -1.23,-0.95 -1.77,-1.34 -0.51,-0.3 -0.39,-0.15 0.26,-0.18 -0.48,0.02 -0.82,-0.14 -0.26,0.17 0.63,0.4 1.21,0.85 1.79,1.32 1.88,1.63 3.5,3.34 5.11,5.24 1.82,2.19 3.35,4.28 4.8,6.73 1.13,2 2.02,3.85 2.49,6.12 0.42,4.32 0.44,8.8 2.07,12.88 0.85,2.02 1.76,3.25 3.44,4.67 0.87,0.93 5.73,2.43 7.06,2.79 -3.13,-0.17 -5.42,-0.59 -8.16,-2.14 -1.8,-1.54 -2.72,-2.95 -3.43,-5.21 -1.18,-4.31 -0.32,-8.57 -0.05,-12.99 0.17,-2.6 -0.45,-4.76 -1.46,-7.13 -1.28,-2.87 -2.74,-5.02 -4.97,-7.24 -1.94,-1.87 -3.98,-3.42 -6.64,-4.05 -0.14,-0.07 -0.62,-0.18 -0.79,-0.21 -0.01,0.01 -0.02,0.02 -0.04,0.03z"/>
  </g>
  <path class="fil2" d="M141.65 22c3.38,-0.2 17.39,13.28 17.39,23.31 0,10.58 -3.33,15.62 6.45,23.79"/>
  <g id="_948890152">
   <path class="fil1" d="M116.62 35.75c0.08,0.03 0.69,0.34 0.69,0.35 2.33,1.14 4.19,2.71 6.03,4.51 2.17,2.14 3.8,4.17 5.37,6.79 1.27,2.26 2.18,4.34 2.45,6.94 0.18,4.2 -0.19,8.83 0.87,12.84 0.6,2.05 1.32,3.32 2.77,4.89 0.63,0.92 4.26,2.72 5.36,3.19 -2.5,-0.73 -3.98,-1.37 -6.18,-2.7 -1.78,-1.59 -2.73,-2.98 -3.58,-5.2 -1.55,-4.26 -1.44,-8.55 -1.74,-13.02 -0.35,-2.15 -1.11,-3.92 -2.09,-5.85 -1.32,-2.5 -2.73,-4.6 -4.45,-6.84 -1.56,-1.95 -3.1,-3.69 -4.96,-5.36 -0.45,-0.47 -1.22,-0.95 -1.77,-1.35 -0.51,-0.3 -0.38,-0.14 0.27,-0.17 -0.48,0.02 -0.82,-0.15 -0.26,0.17 0.63,0.39 1.21,0.84 1.79,1.32 1.88,1.63 3.5,3.34 5.11,5.24 1.82,2.19 3.34,4.27 4.8,6.72 1.13,2.01 2.02,3.86 2.48,6.12 0.43,4.32 0.45,8.8 2.08,12.88 0.85,2.03 1.76,3.26 3.43,4.67 0.88,0.93 5.74,2.44 7.07,2.79 -3.13,-0.16 -5.42,-0.59 -8.16,-2.14 -1.8,-1.53 -2.72,-2.94 -3.43,-5.2 -1.18,-4.31 -0.32,-8.58 -0.05,-13 0.16,-2.59 -0.46,-4.75 -1.46,-7.12 -1.28,-2.87 -2.74,-5.02 -4.97,-7.25 -1.94,-1.87 -3.98,-3.42 -6.65,-4.04 -0.13,-0.07 -0.62,-0.18 -0.78,-0.21 -0.02,0.01 -0.03,0.02 -0.04,0.03z"/>
  </g>
  <path class="fil2" d="M115.44 31.03c3.38,-0.2 17.38,13.29 17.38,23.31 0,10.59 -3.33,15.63 6.45,23.8"/>
  <g id="_948903088">
   <path class="fil1" d="M89.71 47.52c0.07,0.04 0.69,0.35 0.69,0.35 2.32,1.15 4.18,2.72 6.03,4.51 2.16,2.15 3.8,4.18 5.36,6.8 1.28,2.26 2.19,4.33 2.45,6.94 0.18,4.19 -0.19,8.82 0.87,12.84 0.6,2.04 1.32,3.32 2.77,4.89 0.64,0.92 4.27,2.72 5.36,3.18 -2.49,-0.72 -3.97,-1.37 -6.18,-2.7 -1.77,-1.58 -2.73,-2.98 -3.58,-5.19 -1.55,-4.26 -1.43,-8.55 -1.74,-13.02 -0.35,-2.15 -1.11,-3.92 -2.08,-5.85 -1.33,-2.51 -2.73,-4.6 -4.45,-6.84 -1.56,-1.96 -3.11,-3.69 -4.96,-5.37 -0.46,-0.47 -1.23,-0.95 -1.77,-1.34 -0.51,-0.3 -0.39,-0.15 0.26,-0.18 -0.48,0.03 -0.81,-0.14 -0.26,0.17 0.64,0.4 1.21,0.85 1.79,1.32 1.88,1.63 3.51,3.35 5.11,5.24 1.82,2.19 3.35,4.28 4.8,6.73 1.13,2 2.02,3.86 2.49,6.12 0.42,4.32 0.44,8.8 2.07,12.88 0.85,2.03 1.76,3.25 3.44,4.67 0.87,0.93 5.73,2.43 7.06,2.79 -3.13,-0.17 -5.42,-0.59 -8.15,-2.14 -1.81,-1.54 -2.73,-2.95 -3.43,-5.2 -1.19,-4.32 -0.33,-8.58 -0.06,-13 0.17,-2.59 -0.45,-4.76 -1.46,-7.12 -1.28,-2.88 -2.74,-5.02 -4.97,-7.25 -1.94,-1.87 -3.98,-3.42 -6.64,-4.05 -0.14,-0.06 -0.62,-0.17 -0.79,-0.21 -0.01,0.01 -0.02,0.02 -0.03,0.03z"/>
  </g>
  <path class="fil2" d="M88.52 42.81c3.39,-0.2 17.39,13.28 17.39,23.31 0,10.58 -3.33,15.62 6.45,23.79"/>
  <g id="_948900928">
   <path class="fil1" d="M63.09 59.46c0.08,0.03 0.69,0.35 0.69,0.35 2.33,1.14 4.19,2.71 6.04,4.51 2.16,2.14 3.8,4.18 5.36,6.79 1.28,2.27 2.18,4.34 2.45,6.95 0.18,4.19 -0.19,8.82 0.87,12.84 0.6,2.04 1.32,3.32 2.77,4.88 0.64,0.92 4.26,2.73 5.36,3.19 -2.5,-0.72 -3.97,-1.37 -6.18,-2.7 -1.77,-1.58 -2.73,-2.98 -3.58,-5.2 -1.55,-4.25 -1.44,-8.54 -1.74,-13.01 -0.35,-2.15 -1.11,-3.92 -2.09,-5.85 -1.32,-2.51 -2.72,-4.6 -4.45,-6.85 -1.55,-1.95 -3.1,-3.68 -4.96,-5.36 -0.45,-0.47 -1.22,-0.95 -1.77,-1.34 -0.51,-0.3 -0.38,-0.15 0.27,-0.18 -0.48,0.02 -0.82,-0.14 -0.26,0.17 0.63,0.4 1.21,0.85 1.79,1.32 1.88,1.63 3.5,3.34 5.11,5.24 1.82,2.19 3.34,4.28 4.8,6.73 1.13,2 2.02,3.85 2.49,6.12 0.42,4.32 0.44,8.8 2.07,12.88 0.85,2.02 1.76,3.25 3.43,4.67 0.88,0.93 5.74,2.43 7.07,2.78 -3.13,-0.16 -5.42,-0.58 -8.16,-2.13 -1.8,-1.54 -2.72,-2.95 -3.43,-5.21 -1.18,-4.31 -0.32,-8.57 -0.05,-12.99 0.16,-2.6 -0.46,-4.76 -1.46,-7.13 -1.28,-2.87 -2.74,-5.02 -4.97,-7.24 -1.94,-1.87 -3.98,-3.42 -6.65,-4.05 -0.13,-0.07 -0.62,-0.18 -0.78,-0.21 -0.01,0.01 -0.03,0.02 -0.04,0.03z"/>
  </g>
  <path class="fil2" d="M61.91 54.75c3.38,-0.2 17.39,13.28 17.39,23.31 0,10.58 -3.34,15.62 6.44,23.79"/>
  <g id="_948898264">
   <path class="fil1" d="M31.99 55.09c0.08,0.04 0.69,0.35 0.69,0.35 2.33,1.15 4.19,2.72 6.03,4.51 2.17,2.14 3.8,4.18 5.37,6.79 1.27,2.27 2.18,4.34 2.45,6.95 0.18,4.19 -0.19,8.82 0.87,12.84 0.6,2.04 1.32,3.32 2.77,4.88 0.63,0.93 4.26,2.73 5.36,3.19 -2.5,-0.72 -3.98,-1.37 -6.18,-2.7 -1.78,-1.58 -2.73,-2.98 -3.58,-5.2 -1.55,-4.25 -1.44,-8.54 -1.74,-13.01 -0.35,-2.15 -1.11,-3.92 -2.09,-5.85 -1.32,-2.51 -2.73,-4.6 -4.45,-6.85 -1.56,-1.95 -3.1,-3.68 -4.96,-5.36 -0.45,-0.47 -1.22,-0.95 -1.77,-1.34 -0.51,-0.3 -0.38,-0.15 0.27,-0.18 -0.48,0.03 -0.82,-0.14 -0.26,0.17 0.63,0.4 1.21,0.85 1.79,1.32 1.88,1.63 3.5,3.35 5.11,5.24 1.82,2.19 3.34,4.28 4.8,6.73 1.13,2 2.02,3.85 2.48,6.12 0.43,4.32 0.44,8.8 2.08,12.88 0.85,2.02 1.76,3.25 3.43,4.67 0.88,0.93 5.73,2.43 7.07,2.79 -3.13,-0.17 -5.42,-0.59 -8.16,-2.14 -1.8,-1.54 -2.72,-2.95 -3.43,-5.2 -1.18,-4.32 -0.32,-8.58 -0.05,-13 0.16,-2.6 -0.46,-4.76 -1.46,-7.12 -1.29,-2.88 -2.74,-5.02 -4.97,-7.25 -1.94,-1.87 -3.98,-3.42 -6.65,-4.05 -0.13,-0.07 -0.62,-0.18 -0.78,-0.21 -0.02,0.01 -0.03,0.02 -0.04,0.03z"/>
  </g>
  <path class="fil2" d="M30.81 50.38c3.38,-0.2 17.38,13.28 17.38,23.31 0,10.58 -3.33,15.62 6.45,23.79"/>
  <g id="_948896896">
   <path class="fil1" d="M171.68 3.74c0.07,0.02 0.69,0.2 0.69,0.2 2.32,0.66 4.18,1.55 6.03,2.58 2.16,1.23 3.8,2.39 5.37,3.89 1.27,1.29 2.18,2.48 2.44,3.97 0.18,2.4 -0.19,5.05 0.87,7.35 0.6,1.17 1.33,1.9 2.77,2.79 0.64,0.53 4.27,1.56 5.36,1.82 -2.49,-0.41 -3.97,-0.78 -6.18,-1.54 -1.77,-0.9 -2.72,-1.7 -3.58,-2.97 -1.55,-2.44 -1.43,-4.89 -1.74,-7.45 -0.34,-1.23 -1.1,-2.24 -2.08,-3.35 -1.33,-1.43 -2.73,-2.63 -4.45,-3.91 -1.56,-1.12 -3.1,-2.11 -4.96,-3.07 -0.45,-0.27 -1.23,-0.54 -1.77,-0.77 -0.51,-0.17 -0.39,-0.08 0.27,-0.1 -0.49,0.01 -0.82,-0.08 -0.27,0.1 0.64,0.23 1.21,0.48 1.79,0.75 1.88,0.94 3.51,1.92 5.12,3 1.82,1.25 3.34,2.45 4.79,3.85 1.13,1.14 2.02,2.21 2.49,3.5 0.42,2.47 0.44,5.04 2.07,7.37 0.85,1.16 1.76,1.86 3.44,2.67 0.87,0.53 5.73,1.39 7.06,1.6 -3.13,-0.1 -5.42,-0.34 -8.15,-1.23 -1.81,-0.88 -2.73,-1.68 -3.43,-2.97 -1.18,-2.47 -0.33,-4.91 -0.05,-7.44 0.16,-1.48 -0.46,-2.72 -1.46,-4.07 -1.29,-1.65 -2.75,-2.88 -4.98,-4.15 -1.94,-1.07 -3.97,-1.96 -6.64,-2.32 -0.14,-0.03 -0.62,-0.1 -0.79,-0.12 -0.01,0.01 -0.02,0.02 -0.03,0.02z"/>
  </g>
  <path class="fil2" d="M170.5 1.04c3.38,-0.11 17.38,7.6 17.38,13.34 0,6.06 -3.33,8.94 6.45,13.61"/>
  <g id="_700165248">
   <path class="fil1" d="M8.16 73.08c0.08,0.02 0.69,0.2 0.7,0.2 2.32,0.66 4.18,1.56 6.03,2.59 2.16,1.22 3.79,2.38 5.36,3.88 1.27,1.3 2.18,2.48 2.45,3.97 0.18,2.4 -0.19,5.05 0.87,7.35 0.6,1.17 1.33,1.9 2.77,2.8 0.64,0.52 4.26,1.55 5.36,1.82 -2.49,-0.41 -3.97,-0.79 -6.18,-1.55 -1.77,-0.9 -2.73,-1.7 -3.58,-2.97 -1.55,-2.43 -1.44,-4.89 -1.74,-7.45 -0.35,-1.23 -1.1,-2.24 -2.08,-3.34 -1.33,-1.44 -2.73,-2.63 -4.46,-3.92 -1.55,-1.11 -3.1,-2.11 -4.95,-3.07 -0.46,-0.27 -1.23,-0.54 -1.77,-0.77 -0.51,-0.17 -0.39,-0.08 0.26,-0.1 -0.48,0.02 -0.82,-0.08 -0.26,0.1 0.63,0.23 1.21,0.49 1.79,0.76 1.88,0.93 3.5,1.91 5.11,2.99 1.83,1.26 3.34,2.45 4.8,3.85 1.13,1.15 2.02,2.21 2.49,3.5 0.42,2.48 0.44,5.04 2.07,7.37 0.85,1.16 1.76,1.86 3.44,2.67 0.87,0.54 5.73,1.4 7.06,1.6 -3.13,-0.09 -5.42,-0.34 -8.16,-1.22 -1.8,-0.88 -2.72,-1.69 -3.43,-2.98 -1.18,-2.47 -0.32,-4.91 -0.05,-7.44 0.16,-1.48 -0.46,-2.72 -1.46,-4.07 -1.28,-1.64 -2.74,-2.87 -4.97,-4.15 -1.94,-1.07 -3.98,-1.95 -6.64,-2.31 -0.14,-0.04 -0.62,-0.1 -0.79,-0.12 -0.01,0 -0.02,0.01 -0.04,0.01z"/>
  </g>
  <path class="fil2" d="M6.98 70.39c3.38,-0.12 17.39,7.6 17.39,13.33 0,6.06 -3.33,8.94 6.45,13.62"/>
  <g id="_700174416">
   <path class="fil1" d="M45.41 58.49c0.07,0.02 0.69,0.19 0.69,0.2 2.32,0.65 4.18,1.55 6.03,2.58 2.17,1.22 3.79,2.38 5.36,3.88 1.28,1.3 2.19,2.48 2.45,3.97 0.18,2.4 -0.19,5.05 0.87,7.35 0.6,1.17 1.33,1.9 2.77,2.8 0.64,0.52 4.27,1.55 5.36,1.82 -2.49,-0.41 -3.97,-0.78 -6.18,-1.55 -1.77,-0.9 -2.73,-1.7 -3.58,-2.97 -1.55,-2.43 -1.44,-4.89 -1.74,-7.45 -0.35,-1.22 -1.1,-2.24 -2.08,-3.34 -1.33,-1.44 -2.73,-2.63 -4.45,-3.92 -1.55,-1.11 -3.11,-2.11 -4.96,-3.07 -0.46,-0.26 -1.23,-0.54 -1.77,-0.76 -0.51,-0.17 -0.39,-0.09 0.26,-0.1 -0.48,0.01 -0.81,-0.09 -0.26,0.09 0.64,0.23 1.21,0.49 1.79,0.76 1.88,0.93 3.51,1.91 5.11,3 1.83,1.25 3.34,2.44 4.8,3.84 1.13,1.15 2.02,2.21 2.49,3.5 0.42,2.48 0.44,5.04 2.07,7.37 0.85,1.16 1.76,1.86 3.44,2.68 0.87,0.53 5.73,1.39 7.06,1.59 -3.13,-0.09 -5.42,-0.34 -8.15,-1.22 -1.81,-0.88 -2.73,-1.69 -3.43,-2.98 -1.19,-2.47 -0.33,-4.91 -0.06,-7.44 0.17,-1.48 -0.45,-2.72 -1.46,-4.07 -1.28,-1.64 -2.74,-2.87 -4.97,-4.15 -1.94,-1.07 -3.97,-1.95 -6.64,-2.31 -0.14,-0.04 -0.62,-0.1 -0.79,-0.12 -0.01,0 -0.02,0.01 -0.03,0.02z"/>
  </g>
  <path class="fil2" d="M44.22 55.79c3.39,-0.11 17.39,7.6 17.39,13.33 0,6.06 -3.33,8.94 6.45,13.62"/>
  <g id="_700173336">
   <path class="fil1" d="M67.09 45.21c0.08,0.02 0.69,0.2 0.69,0.2 2.33,0.66 4.19,1.56 6.03,2.58 2.17,1.23 3.8,2.39 5.37,3.89 1.27,1.29 2.18,2.48 2.45,3.97 0.18,2.4 -0.2,5.05 0.87,7.35 0.6,1.16 1.32,1.9 2.76,2.79 0.64,0.53 4.27,1.56 5.37,1.83 -2.5,-0.42 -3.98,-0.79 -6.18,-1.55 -1.78,-0.9 -2.73,-1.7 -3.58,-2.97 -1.55,-2.43 -1.44,-4.89 -1.74,-7.45 -0.35,-1.23 -1.11,-2.24 -2.09,-3.35 -1.32,-1.43 -2.73,-2.63 -4.45,-3.91 -1.55,-1.12 -3.11,-2.11 -4.96,-3.07 -0.45,-0.27 -1.23,-0.54 -1.77,-0.77 -0.51,-0.17 -0.38,-0.08 0.27,-0.1 -0.48,0.02 -0.82,-0.08 -0.27,0.1 0.64,0.23 1.22,0.48 1.8,0.76 1.88,0.93 3.5,1.91 5.11,2.99 1.82,1.26 3.34,2.45 4.8,3.85 1.13,1.15 2.02,2.21 2.48,3.5 0.43,2.47 0.44,5.04 2.08,7.37 0.85,1.16 1.75,1.86 3.43,2.67 0.88,0.53 5.73,1.39 7.07,1.6 -3.13,-0.1 -5.42,-0.34 -8.16,-1.23 -1.8,-0.87 -2.72,-1.68 -3.43,-2.97 -1.18,-2.47 -0.32,-4.91 -0.05,-7.44 0.16,-1.48 -0.46,-2.72 -1.46,-4.07 -1.29,-1.65 -2.74,-2.88 -4.97,-4.15 -1.94,-1.07 -3.98,-1.96 -6.65,-2.31 -0.13,-0.04 -0.62,-0.11 -0.79,-0.12 -0.01,0 -0.02,0.01 -0.03,0.01z"/>
  </g>
  <path class="fil2" d="M65.91 42.52c3.38,-0.12 17.38,7.59 17.38,13.33 0,6.06 -3.33,8.94 6.45,13.61"/>
  <g id="_700172472">
   <path class="fil1" d="M96.04 32.69c0.07,0.02 0.69,0.2 0.69,0.2 2.32,0.66 4.18,1.55 6.03,2.58 2.17,1.23 3.8,2.39 5.37,3.89 1.27,1.29 2.18,2.48 2.44,3.97 0.18,2.4 -0.19,5.05 0.87,7.35 0.6,1.16 1.33,1.9 2.77,2.79 0.64,0.53 4.27,1.56 5.36,1.82 -2.49,-0.41 -3.97,-0.78 -6.18,-1.54 -1.77,-0.91 -2.72,-1.7 -3.58,-2.97 -1.54,-2.44 -1.43,-4.89 -1.73,-7.45 -0.36,-1.23 -1.11,-2.24 -2.09,-3.35 -1.33,-1.43 -2.73,-2.63 -4.45,-3.91 -1.55,-1.12 -3.11,-2.12 -4.96,-3.07 -0.45,-0.27 -1.23,-0.55 -1.77,-0.77 -0.51,-0.17 -0.38,-0.08 0.27,-0.1 -0.49,0.01 -0.82,-0.08 -0.27,0.1 0.64,0.22 1.21,0.48 1.79,0.75 1.88,0.93 3.51,1.92 5.12,3 1.82,1.26 3.33,2.44 4.79,3.85 1.13,1.14 2.02,2.2 2.49,3.5 0.42,2.47 0.44,5.03 2.07,7.37 0.85,1.16 1.76,1.86 3.44,2.67 0.87,0.53 5.73,1.39 7.06,1.6 -3.13,-0.1 -5.42,-0.34 -8.15,-1.23 -1.8,-0.88 -2.73,-1.68 -3.43,-2.97 -1.18,-2.47 -0.33,-4.91 -0.05,-7.44 0.16,-1.48 -0.46,-2.72 -1.46,-4.08 -1.29,-1.64 -2.75,-2.87 -4.98,-4.14 -1.94,-1.07 -3.97,-1.96 -6.64,-2.32 -0.14,-0.04 -0.62,-0.1 -0.79,-0.12 -0.01,0.01 -0.02,0.01 -0.03,0.02z"/>
  </g>
  <path class="fil2" d="M94.86 29.99c3.38,-0.11 17.38,7.6 17.38,13.34 0,6.06 -3.33,8.94 6.45,13.61"/>
  <g id="_700170504">
   <path class="fil1" d="M122.59 23.99c0.08,0.02 0.69,0.2 0.69,0.2 2.33,0.66 4.19,1.55 6.03,2.58 2.17,1.23 3.8,2.39 5.37,3.89 1.27,1.29 2.18,2.48 2.45,3.97 0.18,2.4 -0.2,5.05 0.87,7.35 0.6,1.16 1.32,1.9 2.76,2.79 0.64,0.53 4.27,1.56 5.37,1.82 -2.5,-0.41 -3.98,-0.78 -6.18,-1.54 -1.78,-0.91 -2.73,-1.7 -3.58,-2.97 -1.55,-2.44 -1.44,-4.9 -1.74,-7.45 -0.35,-1.23 -1.11,-2.24 -2.09,-3.35 -1.33,-1.43 -2.73,-2.63 -4.45,-3.91 -1.55,-1.12 -3.11,-2.12 -4.96,-3.07 -0.45,-0.27 -1.23,-0.55 -1.77,-0.77 -0.51,-0.17 -0.38,-0.08 0.27,-0.1 -0.49,0.01 -0.82,-0.08 -0.27,0.1 0.64,0.22 1.21,0.48 1.79,0.75 1.89,0.93 3.51,1.92 5.12,3 1.82,1.26 3.34,2.44 4.8,3.85 1.12,1.14 2.01,2.2 2.48,3.5 0.43,2.47 0.44,5.03 2.08,7.37 0.85,1.16 1.75,1.86 3.43,2.67 0.88,0.53 5.73,1.39 7.07,1.6 -3.13,-0.1 -5.42,-0.34 -8.16,-1.23 -1.8,-0.88 -2.72,-1.68 -3.43,-2.97 -1.18,-2.47 -0.32,-4.91 -0.05,-7.44 0.16,-1.48 -0.46,-2.72 -1.46,-4.08 -1.29,-1.64 -2.74,-2.87 -4.97,-4.14 -1.94,-1.07 -3.98,-1.96 -6.65,-2.32 -0.13,-0.04 -0.62,-0.1 -0.79,-0.12 -0.01,0.01 -0.02,0.01 -0.03,0.02z"/>
  </g>
  <path class="fil2" d="M121.41 21.29c3.38,-0.11 17.38,7.6 17.38,13.34 0,6.06 -3.33,8.94 6.45,13.61"/>
  <g id="_700170192">
   <path class="fil1" d="M145.29 8.88c0.08,0.02 0.69,0.2 0.7,0.2 2.32,0.66 4.18,1.56 6.03,2.58 2.16,1.23 3.79,2.39 5.36,3.89 1.28,1.29 2.18,2.48 2.45,3.97 0.18,2.4 -0.19,5.05 0.87,7.35 0.6,1.16 1.33,1.9 2.77,2.79 0.64,0.53 4.26,1.56 5.36,1.83 -2.49,-0.42 -3.97,-0.79 -6.18,-1.55 -1.77,-0.9 -2.73,-1.7 -3.58,-2.97 -1.55,-2.43 -1.44,-4.89 -1.74,-7.45 -0.35,-1.23 -1.1,-2.24 -2.08,-3.35 -1.33,-1.43 -2.73,-2.63 -4.46,-3.91 -1.55,-1.12 -3.1,-2.11 -4.95,-3.07 -0.46,-0.27 -1.23,-0.54 -1.77,-0.77 -0.51,-0.17 -0.39,-0.08 0.26,-0.1 -0.48,0.02 -0.82,-0.08 -0.26,0.1 0.64,0.23 1.21,0.48 1.79,0.76 1.88,0.93 3.5,1.91 5.11,2.99 1.83,1.26 3.34,2.45 4.8,3.85 1.13,1.15 2.02,2.21 2.49,3.5 0.42,2.47 0.44,5.04 2.07,7.37 0.85,1.16 1.76,1.86 3.44,2.67 0.87,0.53 5.73,1.39 7.06,1.6 -3.13,-0.1 -5.42,-0.34 -8.16,-1.23 -1.8,-0.87 -2.72,-1.68 -3.43,-2.97 -1.18,-2.47 -0.32,-4.91 -0.05,-7.44 0.17,-1.48 -0.45,-2.72 -1.46,-4.07 -1.28,-1.65 -2.74,-2.88 -4.97,-4.15 -1.94,-1.07 -3.98,-1.96 -6.64,-2.31 -0.14,-0.04 -0.62,-0.11 -0.79,-0.12 -0.01,0 -0.02,0.01 -0.04,0.01z"/>
  </g>
  <path class="fil2" d="M144.11 6.19c3.38,-0.12 17.39,7.59 17.39,13.33 0,6.06 -3.33,8.94 6.45,13.61"/>
  <circle class="fil0" cx="36.65" cy="88.79" r="3.06"/>
  <circle class="fil0" cx="60.22" cy="86.7" r="3.06"/>
  <circle class="fil0" cx="67.55" cy="72.09" r="2.12"/>
  <circle class="fil0" cx="19.6" cy="96.08" r="1.53"/>
  <circle class="fil0" cx="92.91" cy="84.49" r="3.06"/>
  <circle class="fil0" cx="114.59" cy="66.2" r="2.48"/>
  <circle class="fil0" cx="92.39" cy="59.75" r="1.92"/>
  <circle class="fil0" cx="147.19" cy="61.06" r="2.51"/>
  <circle class="fil0" cx="120.51" cy="49.33" r="2.4"/>
  <circle class="fil0" cx="141.64" cy="35.95" r="1.53"/>
  <circle class="fil0" cx="167.63" cy="42.78" r="3.06"/>
  <circle class="fil0" cx="168.46" cy="22.93" r="2.57"/>
  <circle class="fil0" cx="126.31" cy="88.34" r="2.61"/>
  <circle class="fil0" cx="152.54" cy="78.89" r="3.06"/>
  <circle class="fil0" cx="175.2" cy="73.81" r="2.18"/>
  <circle class="fil0" cx="189.58" cy="35.78" r="2.6"/>
  <circle class="fil0" cx="191.9" cy="9.65" r="1.53"/>
  <circle class="fil0" cx="186.27" cy="93.21" r="2.12"/>
  <circle class="fil0" cx="192.52" cy="76.68" r="1.53"/>
  <circle class="fil0" cx="158.76" cy="94.03" r="1.53"/>
  <circle class="fil0" cx="186.4" cy="60.66" r="0.77"/>
 </g>
</svg>
