<?xml version="1.0" encoding="UTF-8"?>
<!DOCTYPE svg PUBLIC "-//W3C//DTD SVG 1.1//EN" "http://www.w3.org/Graphics/SVG/1.1/DTD/svg11.dtd">
<!-- Creator: CorelDRAW 2019 -->
<svg xmlns="http://www.w3.org/2000/svg" xml:space="preserve" width="100px" height="500px" version="1.1" style="shape-rendering:geometricPrecision; text-rendering:geometricPrecision; image-rendering:optimizeQuality; fill-rule:evenodd; clip-rule:evenodd"
viewBox="0 0 100 500"
 xmlns:xlink="http://www.w3.org/1999/xlink"
 xmlns:xodm="http://www.corel.com/coreldraw/odm/2003">
 <defs>
  <style type="text/css">
   <![CDATA[
    .fil0 {fill:#DE411B}
   ]]>
  </style>
    <clipPath id="id0">
     <path d="M-15.95 -14.89l138.25 -0.97 0 530.01 -138.25 0.97 0 -530.01z"/>
    </clipPath>
 </defs>
 <g id="Layer_x0020_1">
  <metadata id="CorelCorpID_0Corel-Layer"/>
  <g id="_1323668784">
   <g style="clip-path:url(#id0)">
    <image x="-15.95" y="-15.86" width="138.25" height="530.97" xlink:href="header border_Images\header border_ImgID1.png"/>
   </g>
  </g>
  <path class="fil0" d="M100 0c-10,22.26 -4.68,34.78 -17.79,47.61 -10.79,10.33 -48.3,4.41 -35.18,16.93 23.92,10.16 -3.09,26.89 2.39,43.61 2.4,12.66 27.45,14.07 25.01,31.42 -6.28,17.14 -39.44,-2.27 -45.09,34.56 0.84,29.36 -22.37,15.27 -29.34,75.87 2.86,28.22 38.84,46.12 32.01,76.22 -11.53,26.39 32.87,5.9 38.52,21.98 -1.35,14.36 -23,11.45 -26.54,29.95 11.09,19.02 -28.11,55.52 -3.27,49.55 20.42,0.44 23.34,25.57 38.77,23.83 20.9,-0.72 8.67,33.25 20.51,48.47l-100 0 0 -500 65.13 0 34.87 0z"/>
 </g>
</svg>
